<?xml version="1.0" encoding="utf-8"?>
<!-- Generator: Adobe Illustrator 16.0.0, SVG Export Plug-In . SVG Version: 6.00 Build 0)  -->
<!DOCTYPE svg PUBLIC "-//W3C//DTD SVG 1.1//EN" "http://www.w3.org/Graphics/SVG/1.1/DTD/svg11.dtd">
<svg version="1.1" id="Layer_1" xmlns="http://www.w3.org/2000/svg" xmlns:xlink="http://www.w3.org/1999/xlink" x="0px" y="0px"
	 width="80px" height="80px" viewBox="0 0 80 80" enable-background="new 0 0 80 80" xml:space="preserve">
<g id="Layer_1_1_">
	<g>
		<g>
			<path fill="#4C4C4C" d="M74,71c0,1.657-1.343,3-3,3H9c-1.657,0-3-1.343-3-3V9c0-1.657,1.343-3,3-3h62c1.657,0,3,1.343,3,3V71z"/>
		</g>
	</g>
</g>
<g id="Layer_2">
	<g>
		<ellipse fill="#FFFFFF" cx="27.766" cy="32.597" rx="7.375" ry="7.097"/>
		<path fill="#FFFFFF" d="M38.269,53H16.931c-0.203,0-0.324-1.738-0.324-2.729c0-4.404,2.145-8.175,5.338-10.292
			c1.94,0.808,4.04,1.303,6.242,1.303c1.93,0,3.779-0.331,5.515-0.952c2.947,2.17,4.893,5.734,4.893,9.933
			C38.593,51.254,38.474,53,38.269,53z"/>
	</g>
</g>
<g>
	<path fill="#FFFFFF" d="M65.314,32.499c0,0.915-0.742,1.658-1.658,1.658H44.803c-0.915,0-1.658-0.743-1.658-1.658l0,0
		c0-0.915,0.743-1.658,1.658-1.658h18.854C64.572,30.84,65.314,31.583,65.314,32.499L65.314,32.499z"/>
	<path fill="#FFFFFF" d="M65.314,39.25c0,0.915-0.742,1.658-1.658,1.658H44.803c-0.915,0-1.658-0.743-1.658-1.658l0,0
		c0-0.915,0.743-1.658,1.658-1.658h18.854C64.572,37.592,65.314,38.335,65.314,39.25L65.314,39.25z"/>
	<path fill="#FFFFFF" d="M65.508,46.002c0,0.915-0.742,1.657-1.657,1.657H44.996c-0.914,0-1.658-0.742-1.658-1.657l0,0
		c0-0.915,0.744-1.658,1.658-1.658h18.854C64.766,44.344,65.508,45.087,65.508,46.002L65.508,46.002z"/>
</g>
</svg>
