<?xml version="1.0" encoding="utf-8"?>
<!-- Generator: Adobe Illustrator 16.0.0, SVG Export Plug-In . SVG Version: 6.00 Build 0)  -->
<!DOCTYPE svg PUBLIC "-//W3C//DTD SVG 1.1//EN" "http://www.w3.org/Graphics/SVG/1.1/DTD/svg11.dtd">
<svg version="1.1" xmlns="http://www.w3.org/2000/svg" xmlns:xlink="http://www.w3.org/1999/xlink" x="0px" y="0px" width="80px"
	 height="80px" viewBox="0 0 80 80" enable-background="new 0 0 80 80" xml:space="preserve">
<g id="Layer_1">
	<path fill="#4C4C4C" d="M74,71c0,1.657-1.343,3-3,3H9c-1.657,0-3-1.343-3-3V9c0-1.657,1.343-3,3-3h62c1.657,0,3,1.343,3,3V71z"/>
</g>
<g id="Layer_2">
	<g>
		<path fill="#FCFCFC" d="M41.688,26.094c1.217-1.41,2.738-2.285,3.961-2.391c0.144,1.145-0.451,2.723-1.668,4.133
			c-1.217,1.412-2.737,2.285-3.959,2.391C39.878,29.083,40.471,27.504,41.688,26.094z M44.402,56.296
			c-1.604,0-3.105-0.379-4.402-1.237c-1.298,0.858-2.798,1.237-4.4,1.237c-4.9,0-8.874-10.399-8.874-16.059
			c0-5.661,3.973-10.249,8.874-10.249c1.603,0,3.103,0.498,4.4,1.357c1.298-0.859,2.799-1.357,4.402-1.357
			c4.898,0,8.871,4.588,8.871,10.249C53.273,45.896,49.302,56.296,44.402,56.296z"/>
	</g>
</g>
</svg>
