<?xml version="1.0" encoding="utf-8"?>
<!-- Generator: Adobe Illustrator 16.0.0, SVG Export Plug-In . SVG Version: 6.00 Build 0)  -->
<!DOCTYPE svg PUBLIC "-//W3C//DTD SVG 1.1//EN" "http://www.w3.org/Graphics/SVG/1.1/DTD/svg11.dtd">
<svg version="1.1" id="Layer_1" xmlns="http://www.w3.org/2000/svg" xmlns:xlink="http://www.w3.org/1999/xlink" x="0px" y="0px"
	 width="80px" height="80px" viewBox="0 0 80 80" enable-background="new 0 0 80 80" xml:space="preserve">
<g id="Layer_1_1_">
	<g>
		<g>
			<path fill="#4C4C4C" d="M74,71c0,1.657-1.343,3-3,3H9c-1.657,0-3-1.343-3-3V9c0-1.657,1.343-3,3-3h62c1.657,0,3,1.343,3,3V71z"/>
		</g>
	</g>
</g>
<path fill="#FFFFFF" d="M53.499,27.348c-3.586-3.057-8.918-2.507-12.209,0.89l-1.289,1.328l-1.289-1.328
	c-3.286-3.396-8.625-3.946-12.21-0.89c-4.109,3.507-4.325,9.802-0.648,13.602l12.661,13.073c0.818,0.844,2.146,0.844,2.962,0
	L54.14,40.95C57.823,37.15,57.608,30.855,53.499,27.348z"/>
<polygon fill="#4C4C4C" stroke="#4C4C4C" stroke-width="0.8" stroke-miterlimit="10" points="38.971,43.403 38.998,43.378 
	45.006,36.469 47.773,40.495 55.502,40.481 58.891,40.478 58.889,39.679 56.123,39.681 48.193,39.694 45.082,35.164 39.022,42.126 
	38.998,42.093 32.193,30.028 24.688,42.462 24.196,42.274 24.196,42.274 25.675,42.837 32.193,31.528 "/>
</svg>
