<?xml version="1.0" encoding="utf-8"?>
<!-- Generator: Adobe Illustrator 16.0.0, SVG Export Plug-In . SVG Version: 6.00 Build 0)  -->
<!DOCTYPE svg PUBLIC "-//W3C//DTD SVG 1.1//EN" "http://www.w3.org/Graphics/SVG/1.1/DTD/svg11.dtd">
<svg version="1.1" id="Layer_1" xmlns="http://www.w3.org/2000/svg" xmlns:xlink="http://www.w3.org/1999/xlink" x="0px" y="0px"
	 width="80px" height="80px" viewBox="0 0 80 80" enable-background="new 0 0 80 80" xml:space="preserve">
<g id="Layer_1_1_">
	<g>
		<g>
			<path fill="#4C4C4C" d="M74,71c0,1.657-1.343,3-3,3H9c-1.657,0-3-1.343-3-3V9c0-1.657,1.343-3,3-3h62c1.657,0,3,1.343,3,3V71z"/>
		</g>
	</g>
</g>
<g>
	<g>
		<path fill="#FFFFFF" d="M55.473,35.927c0-5.239-4.246-9.485-9.484-9.485c-2.277,0-4.354,0.816-5.988,2.156v28.96l13.141-15.396
			l-0.017-0.004C54.583,40.491,55.473,38.314,55.473,35.927z"/>
	</g>
	<g>
		<path fill="#FFFFFF" d="M24.527,35.927c0-5.239,4.246-9.485,9.484-9.485c2.276,0,4.354,0.816,5.987,2.156v28.96L26.86,42.163
			l0.015-0.004C25.416,40.491,24.527,38.314,24.527,35.927z"/>
	</g>
</g>
<polygon fill="#4C4C4C" stroke="#4C4C4C" stroke-width="1.1" stroke-miterlimit="10" points="39.302,45.219 39.328,45.193 
	45.336,38.285 48.104,42.311 55.832,42.297 59.221,42.293 59.219,41.494 56.453,41.496 48.523,41.51 45.412,36.98 39.353,43.941 
	39.328,43.908 32.524,31.844 25.019,44.277 24.527,44.091 24.527,44.091 26.006,44.652 32.524,33.344 "/>
</svg>
