<?xml version="1.0" encoding="utf-8"?>
<!-- Generator: Adobe Illustrator 16.0.0, SVG Export Plug-In . SVG Version: 6.00 Build 0)  -->
<!DOCTYPE svg PUBLIC "-//W3C//DTD SVG 1.1//EN" "http://www.w3.org/Graphics/SVG/1.1/DTD/svg11.dtd">
<svg version="1.1" id="Layer_1" xmlns="http://www.w3.org/2000/svg" xmlns:xlink="http://www.w3.org/1999/xlink" x="0px" y="0px"
	 width="80px" height="80px" viewBox="0 0 80 80" enable-background="new 0 0 80 80" xml:space="preserve">
<g>
	<path fill="#001215" d="M73.457,44.888c0.445,1.847-0.707,3.701-2.574,4.142l0,0c-1.867,0.44-3.743-0.699-4.189-2.547
		l-5.244-21.736c-0.445-1.847,0.707-3.702,2.575-4.142l0,0c1.867-0.441,3.743,0.7,4.189,2.546L73.457,44.888z"/>
	<path fill="#001215" d="M77.421,39.093c0.278,1.153-0.442,2.313-1.609,2.589l0,0c-1.168,0.275-2.341-0.438-2.619-1.592
		l-3.226-13.377c-0.279-1.154,0.441-2.313,1.608-2.588l0,0c1.167-0.275,2.339,0.438,2.618,1.591L77.421,39.093z"/>
	<path fill="#001215" d="M66.589,49.749c0.594,2.462-0.943,4.935-3.435,5.522l-0.279,0.066c-2.491,0.588-4.991-0.933-5.586-3.396
		l-6.925-28.703c-0.595-2.463,0.941-4.936,3.432-5.523l0.282-0.066c2.489-0.588,4.991,0.933,5.584,3.394L66.589,49.749z"/>
</g>
<g>
	<path fill="#001215" d="M5.615,36.107c-0.445-1.847,0.707-3.701,2.575-4.142l0,0c1.867-0.44,3.743,0.699,4.189,2.547l5.245,21.736
		c0.446,1.846-0.707,3.701-2.575,4.142l0,0c-1.868,0.44-3.743-0.7-4.189-2.546L5.615,36.107z"/>
	<path fill="#001215" d="M1.651,41.902c-0.278-1.153,0.442-2.313,1.61-2.589l0,0c1.168-0.275,2.34,0.438,2.619,1.592l3.227,13.377
		c0.278,1.154-0.441,2.313-1.609,2.588l0,0c-1.167,0.275-2.339-0.438-2.618-1.591L1.651,41.902z"/>
	<path fill="#001215" d="M12.483,31.246c-0.593-2.462,0.943-4.935,3.435-5.522l0.279-0.066c2.492-0.588,4.991,0.933,5.585,3.396
		l6.926,28.703c0.594,2.463-0.942,4.936-3.432,5.522l-0.282,0.066c-2.49,0.588-4.991-0.932-5.584-3.394L12.483,31.246z"/>
	<path fill="#001215" d="M51.353,35.115c2.134-0.513,4.167,0.349,4.538,1.926l0.042,0.177c0.37,1.578-1.062,3.272-3.197,3.787
		L27.84,46.992c-2.136,0.515-4.168-0.347-4.538-1.924L23.26,44.89c-0.371-1.576,1.06-3.272,3.196-3.785L51.353,35.115z"/>
</g>
</svg>
