<?xml version="1.0" encoding="utf-8"?>
<!-- Generator: Adobe Illustrator 16.0.0, SVG Export Plug-In . SVG Version: 6.00 Build 0)  -->
<!DOCTYPE svg PUBLIC "-//W3C//DTD SVG 1.1//EN" "http://www.w3.org/Graphics/SVG/1.1/DTD/svg11.dtd">
<svg version="1.1" xmlns="http://www.w3.org/2000/svg" xmlns:xlink="http://www.w3.org/1999/xlink" x="0px" y="0px" width="80px"
	 height="80px" viewBox="0 0 80 80" enable-background="new 0 0 80 80" xml:space="preserve">
<g id="Layer_1">
	<g>
		<image overflow="visible" opacity="0.75" width="98" height="98" xlink:href="282FD8D1.png"  transform="matrix(1 0 0 1 -8 -7)">
		</image>
		<g>
			<path fill="#4C4C4C" d="M74,71c0,1.657-1.343,3-3,3H9c-1.657,0-3-1.343-3-3V9c0-1.657,1.343-3,3-3h62c1.657,0,3,1.343,3,3V71z"/>
		</g>
	</g>
</g>
<g id="Layer_2">
	<g>
		<ellipse fill="#FFFFFF" cx="40.188" cy="32.5" rx="8.313" ry="8"/>
		<path fill="#FFFFFF" d="M52.027,55.5H27.973c-0.229,0-0.365-1.958-0.365-3.075c0-4.966,2.418-9.216,6.017-11.603
			c2.188,0.91,4.554,1.469,7.037,1.469c2.175,0,4.26-0.372,6.217-1.073c3.322,2.447,5.515,6.464,5.515,11.196
			C52.393,53.532,52.258,55.5,52.027,55.5z"/>
	</g>
</g>
</svg>
