<?xml version="1.0" encoding="utf-8"?>
<!-- Generator: Adobe Illustrator 16.0.0, SVG Export Plug-In . SVG Version: 6.00 Build 0)  -->
<!DOCTYPE svg PUBLIC "-//W3C//DTD SVG 1.1//EN" "http://www.w3.org/Graphics/SVG/1.1/DTD/svg11.dtd">
<svg version="1.1" id="Layer_1" xmlns="http://www.w3.org/2000/svg" xmlns:xlink="http://www.w3.org/1999/xlink" x="0px" y="0px"
	 width="80px" height="80px" viewBox="0 0 80 80" enable-background="new 0 0 80 80" xml:space="preserve">
<g id="Layer_1_1_">
	<g>
		<g>
			<path fill="#4C4C4C" d="M74,71c0,1.657-1.343,3-3,3H9c-1.657,0-3-1.343-3-3V9c0-1.657,1.343-3,3-3h62c1.657,0,3,1.343,3,3V71z"/>
		</g>
	</g>
</g>
<path fill="#FFFFFF" d="M39.993,25.474c0.049,0.282,0.972,5.701,0.972,7.77c0,3.155-1.676,5.405-4.157,6.312l0.778,14.363
	c0.042,0.827-0.615,1.526-1.447,1.526h-3.862c-0.826,0-1.49-0.692-1.448-1.526l0.778-14.363c-2.486-0.906-4.156-3.161-4.156-6.312
	c0-2.075,0.922-7.487,0.971-7.77c0.194-1.225,2.734-1.242,2.89,0.066v8.518c0.079,0.206,0.912,0.194,0.965,0
	c0.085-1.526,0.478-8.398,0.483-8.553c0.199-1.256,2.697-1.256,2.89,0c0.012,0.161,0.398,7.026,0.483,8.553
	c0.054,0.194,0.893,0.206,0.965,0V25.54C37.255,24.238,39.801,24.249,39.993,25.474z M47.184,42.709l-0.904,11.167
	c-0.072,0.845,0.598,1.568,1.441,1.568h3.38c0.802,0,1.447-0.646,1.447-1.448V26.005c0-0.796-0.646-1.448-1.447-1.448
	C46.123,24.557,37.743,35.326,47.184,42.709z"/>
</svg>
