<?xml version="1.0" encoding="utf-8"?>
<!-- Generator: Adobe Illustrator 16.0.0, SVG Export Plug-In . SVG Version: 6.00 Build 0)  -->
<!DOCTYPE svg PUBLIC "-//W3C//DTD SVG 1.1//EN" "http://www.w3.org/Graphics/SVG/1.1/DTD/svg11.dtd">
<svg version="1.1" id="Layer_1" xmlns="http://www.w3.org/2000/svg" xmlns:xlink="http://www.w3.org/1999/xlink" x="0px" y="0px"
	 width="80px" height="80px" viewBox="0 0 80 80" enable-background="new 0 0 80 80" xml:space="preserve">
<g id="Layer_1_1_">
	<g>
		<g>
			<path fill="#4C4C4C" d="M74,71c0,1.657-1.343,3-3,3H9c-1.657,0-3-1.343-3-3V9c0-1.657,1.343-3,3-3h62c1.657,0,3,1.343,3,3V71z"/>
		</g>
	</g>
</g>
<path fill="#FFFFFF" d="M53.495,42.51l3.047,1.758c0.349,0.201,0.509,0.616,0.392,1c-0.793,2.547-2.144,4.851-3.91,6.763
	c-0.273,0.295-0.714,0.36-1.062,0.159l-3.043-1.758c-1.281,1.099-2.754,1.949-4.345,2.513v3.516c0,0.402-0.278,0.75-0.669,0.838
	c-2.5,0.561-5.184,0.59-7.809,0c-0.392-0.088-0.67-0.436-0.67-0.838v-3.516c-1.592-0.563-3.065-1.414-4.345-2.513l-3.043,1.758
	c-0.349,0.201-0.788,0.136-1.061-0.159c-1.767-1.912-3.12-4.216-3.911-6.763c-0.118-0.384,0.043-0.799,0.391-1l3.047-1.758
	c-0.306-1.659-0.306-3.36,0-5.019l-3.047-1.759c-0.348-0.2-0.509-0.615-0.391-0.999c0.792-2.548,2.144-4.849,3.911-6.761
	c0.272-0.295,0.711-0.362,1.061-0.161l3.043,1.757c1.28-1.097,2.753-1.948,4.345-2.512v-3.514c0-0.402,0.277-0.75,0.668-0.838
	c2.499-0.562,5.183-0.591,7.808,0c0.393,0.086,0.672,0.436,0.672,0.838v3.514c1.591,0.564,3.064,1.415,4.345,2.512l3.043-1.757
	c0.348-0.201,0.788-0.134,1.062,0.161c1.767,1.913,3.117,4.213,3.91,6.761c0.117,0.383-0.043,0.799-0.392,0.999l-3.047,1.759
	C53.802,39.149,53.802,40.851,53.495,42.51z M46.806,40c0-3.752-3.054-6.806-6.807-6.806S33.194,36.248,33.194,40
	c0,3.753,3.052,6.805,6.805,6.805S46.806,43.753,46.806,40z"/>
</svg>
